/* XPM */
static char *a7d5d5665dc54b14ef22602c47f0887fmD4T3p1Z7WmYhHH8[] = {
/* columns rows colors chars-per-pixel */
"64 64 254 2 ",
"   c #0D0C24",
".  c #0D0E2A",
"X  c #130E2A",
"o  c #120C24",
"O  c #0E122C",
"+  c #0B1127",
"@  c #13122D",
"#  c #19152D",
"$  c #18152A",
"%  c #0E1134",
"&  c #0E153B",
"*  c #141434",
"=  c #1A1535",
"-  c #1D1934",
";  c #14153B",
":  c #1B163C",
">  c #15193D",
",  c #1D1A3B",
"<  c #151837",
"1  c #0F0D36",
"2  c #221B3D",
"3  c #211A36",
"4  c #24203E",
"5  c #141542",
"6  c #1A1643",
"7  c #151943",
"8  c #1C1B44",
"9  c #16164B",
"0  c #1B164A",
"q  c #1C1B4C",
"w  c #151C4B",
"e  c #1B1553",
"r  c #1D1C53",
"t  c #1E1C5A",
"y  c #1A1658",
"u  c #121046",
"i  c #231C43",
"p  c #221C4C",
"a  c #2B1D4B",
"s  c #271A43",
"d  c #231D53",
"f  c #231D5A",
"g  c #2A1E53",
"h  c #331E50",
"j  c #1C214C",
"k  c #1D2153",
"l  c #1E235B",
"z  c #1B285F",
"x  c #242144",
"c  c #2A2245",
"v  c #24224B",
"b  c #2B234C",
"n  c #2E284A",
"m  c #33244C",
"M  c #232254",
"N  c #2B2253",
"B  c #24235B",
"V  c #2A245C",
"C  c #23295E",
"Z  c #2A295C",
"A  c #2A2B53",
"S  c #332552",
"D  c #392654",
"F  c #3C2B5B",
"G  c #372957",
"H  c #353157",
"J  c #1D1962",
"K  c #241D62",
"L  c #261D69",
"P  c #281C76",
"I  c #1C2765",
"U  c #242562",
"Y  c #2B2563",
"T  c #242A63",
"R  c #2A2A63",
"E  c #2B256C",
"W  c #242C6A",
"Q  c #2B2A6C",
"!  c #25236B",
"~  c #322B65",
"^  c #322C6C",
"/  c #332669",
"(  c #28316E",
")  c #38356B",
"_  c #2C2373",
"`  c #2C2B74",
"'  c #2D237B",
"]  c #272975",
"[  c #332C73",
"{  c #32247B",
"}  c #342A7D",
"|  c #362B78",
" . c #2A3273",
".. c #2C347C",
"X. c #263179",
"o. c #333374",
"O. c #3A3274",
"+. c #33337B",
"@. c #39337B",
"#. c #38397B",
"$. c #432C5C",
"%. c #452B58",
"&. c #48335D",
"*. c #4A2E57",
"=. c #442D62",
"-. c #493566",
";. c #543868",
":. c #483579",
">. c #583A78",
",. c #512E71",
"<. c #673C7B",
"1. c #683B71",
"2. c #574479",
"3. c #484671",
"4. c #68437D",
"5. c #79417E",
"6. c #2E1D87",
"7. c #2B2484",
"8. c #332582",
"9. c #352A8B",
"0. c #372988",
"q. c #2D3885",
"w. c #3B3382",
"e. c #343A84",
"r. c #3D3C8B",
"t. c #373686",
"y. c #3A2896",
"u. c #3D3798",
"i. c #2F3B91",
"p. c #3E2BA5",
"a. c #3E2EAB",
"s. c #453C8C",
"d. c #463A86",
"f. c #573C88",
"g. c #473798",
"h. c #463195",
"j. c #673B84",
"k. c #753D86",
"l. c #442BA8",
"z. c #4834A9",
"x. c #472CB6",
"c. c #4A33B6",
"v. c #543BB9",
"b. c #411FB4",
"n. c #3B428A",
"m. c #2F4395",
"M. c #374798",
"N. c #3950A9",
"B. c #44438C",
"V. c #4A4388",
"C. c #55428D",
"Z. c #434395",
"A. c #4C4594",
"S. c #494899",
"D. c #544A94",
"F. c #544C9C",
"G. c #574697",
"H. c #5C529D",
"J. c #515499",
"K. c #6B4383",
"L. c #66458B",
"P. c #784989",
"I. c #6A4798",
"U. c #774B98",
"Y. c #775296",
"T. c #6B579A",
"R. c #4B49A3",
"E. c #5749A3",
"W. c #4856A4",
"Q. c #5B52A3",
"!. c #5755A6",
"~. c #5A57B5",
"^. c #4F53B3",
"/. c #634DA8",
"(. c #6756A8",
"). c #7B54A3",
"_. c #7658A9",
"`. c #6958B7",
"'. c #785DB4",
"]. c #734AA6",
"[. c #5A65B8",
"{. c #4C62B5",
"}. c #6662AD",
"|. c #7863AB",
" X c #6364B7",
".X c #7965B8",
"XX c #7674BF",
"oX c #4D35C2",
"OX c #5639C8",
"+X c #5434CC",
"@X c #5C42D1",
"#X c #5B42C7",
"$X c #664CCC",
"%X c #6448D9",
"&X c #6B55D7",
"*X c #7556D7",
"=X c #6C6AC7",
"-X c #7A6DD1",
";X c #7956E9",
":X c #7250EA",
">X c #5F6AC6",
",X c #875597",
"<X c #885192",
"1X c #8557A8",
"2X c #975EA8",
"3X c #865DB3",
"4X c #9663A8",
"5X c #8867B8",
"6X c #9868B6",
"7X c #8A74BC",
"8X c #9774BB",
"9X c #8760AF",
"0X c #A56BB7",
"qX c #A676BA",
"wX c #B47BBB",
"eX c #A56BAD",
"rX c #A56C9F",
"tX c #8A6EC2",
"yX c #8975C5",
"uX c #9A77C7",
"iX c #8979D4",
"pX c #9779D4",
"aX c #8F6DCF",
"sX c #A479C6",
"dX c #B37BC6",
"fX c #AF79CE",
"gX c #8965F7",
"hX c #9777F2",
"jX c #A27DFF",
"kX c #C181BD",
"lX c #9986D6",
"zX c #908ED8",
"xX c #B986CA",
"cX c #AC88D5",
"vX c #B98AD5",
"bX c #AC8FD4",
"nX c #9784E9",
"mX c #AD93ED",
"MX c #B7A8F6",
"NX c #AFA1DC",
"BX c #C387C8",
"VX c #C58BD5",
"CX c #C898D9",
"ZX c #D698D3",
"AX c #D8A2DD",
"SX c #E0A4DE",
"DX c #CA95E3",
"FX c #D49EE4",
"GX c #D8A7E8",
"HX c #C9B7FB",
"JX c #E4A9E4",
"KX c #EAB1E9",
"LX c #CEC7FF",
"PX c #FBEEFF",
/* pixels */
"$ $ X * = 2 , , @ < ; 6 0 8 6 ; 6 6 6 6 0 p d d i i 8 p B Y Y U U Y V B d d p p f f f d p 0 p p , : : ; ; > ; ; ; ; % % & 7 k C ",
"$ X X @ = : , , * * ; 5 0 0 0 6 0 0 0 0 0 p d d i i 8 p M V V B B B B B d d d d Y V V V d p p v 8 , : ; > > ; ; 7 7 < ; & 7 w k ",
"$ X X @ = : , , ; ; 0 d V V f 0 p p p p d d d d i p 0 p d B B B r f B B d d d M Y Y Y V V d p p i 8 : : > > ; ; 8 7 > > & 7 w k ",
"$ @ @ * = : , 6 6 0 d / O.[ f e d d d d d d d d p 0 q q r r r r r r B t d d d V Y Y Y Y V d p p i i , : > > ; ; > > > > > w k l ",
"@ @ * < < : 8 8 9 0 t U E E t e f f f f f f d d q q q q q q r r r k M k r d B B / / / Y V N p p i i 6 : : > ; ; ; ; ; > > w k C ",
"* * < < ; : 8 p d e e y t K K f K K f f f d p 0 q q q q q q q q k k M B B B B B ^ ^ / ~ Y V M d i 8 : ; ; ; ; ; ; ; > > > 7 w k ",
"* < < < ; ; 8 p d d f f t K ! E K K K K f d p 0 q r r q q w q j q k M B B B U Y [ ^ / Y Y V V d i 8 : ; ; ; > > ; ; > > & 7 w r ",
"@ * < * * ; 8 p 5 e f Y K K U Y L L L K f f d 0 q r k r q w j k w q k B B U R Q ^ / Y Y V V M d i : : ; ; ; > > & ; ; > & 7 w r ",
"* * * * * ; 7 q U U L L P P ' ' ' 8.' L J t r 9 q M q q M M q M k k C T B U Q #.~ ~ Y Y B B M v 8 ; * * < < ; 6 6 > ; % % ; > 7 ",
"* * * * ; ; 9 r t K L _ ' 8.9.9.0.0.' ] ! T B q d V r r B B M C k l B C l t R o.~ Y Y B V B d p 8 ; * * < = ; : ; 6 8 v v v j 7 ",
"% % * * ; 7 r t t K _ 8.9.y.y.y.y.9.' ! W R B q V R B r B B k C k k l B l t B Q V V U B B B q 0 8 ; * * = < ; : % ; 7 v v v 7 > ",
"% * * * ; 9 f U B E } y.p.p.p.p.y.9.7.] W T B q B R B r l k w l l l B B l r B R B B B Y V B q 0 6 ; * < = < ; : ; ; ; ; < > > > ",
"< * * % ; q U ` K _ 9.p.x.c.x.l.z.h.9.` W B B B y B l l T U t z l l B T B r B R B B U U Y B d 9 : = * < , < ; ; , < * * * * < , ",
"> ; * % 5 r ! ` L ' y.x.oXOXOXv.c.z.9.` U k B R e B U T  .( T W U U U T V B B Z B B B U V B k w 6 = * < = ; ; ; < < < * * * * * ",
"; ; ; ; 9 t ! ` P 7.p.oX@X%X$X$X#Xz.9.` U k f V I Q W Q o. .W ( U I U T T B B Z k l B B B B k w : = * = , ; ; ; * * % O O % % % ",
"* ; > 7 q t ! _ 7.y.x.OX%X%X&X&X&Xv.9.` R C V Y Q o.( Q  .W I W I l I T C B B Z k r t l l k k w : = * = , ; ; ; < * . . . O * > ",
"> 5 9 y J L P P 7.u.c.;X:X;X*X;X&X^.9.t.+.W U Q  .n.#.T I ( I I I z I z B B B C k r r B M d 9 0 6 : : : : : : : * @ @ . . @ @ * ",
"> 5 9 y K _ ' P 7.a.OX;X;XgX*XiX&X~.S.r.t.e.#.#.X.e.+.W W W I I W W T T B V V R C l r B B M d d 8 8 8 , : : : : * @ @ . . @ * * ",
"7 5 9 t ! ' 8.7.y.c.@XgXgXhXpXmX-X=X~.Z.r.B.s.w.e.n.e. . .W I W W W W T l B B V R B k B M M d M p i 8 8 , : : = * * @ @ @ @ * * ",
"5 5 5 r E 8.0.7.a.oX%XgXhXnXMXHXnX-X`.R.A.A.D.A.S.S.r.q.q.W I W W W W W U U B U R B M B M d p p i i 8 8 , : : = * * @ @ @ @ * * ",
"7 ; 5 r E } 9.y.oXOX:XgXhXnXHXPXMXiX`././.(.`..XQ.F.r.e.q.X.W  . . .W Q Q Q Q U R V B V V d p p 6 6 6 6 , , : = * * * @ @ @ @ * ",
"5 ; 5 9 K ' 9.y.OXOX;XgXhXnXHXPXMXlX=X'.'._..XyX|.(.A.t.q... .#.e...( W ` o.Q ! R R Y ~ ~ V d p 6 : 6 8 , , : : * * * @ @ @ @ @ ",
"5 5 7 9 t P y.a.OXOX;XgXjXpXMXLXMXcXpXaX5X3X5X8XsXuX(.r.i.q.q.e.W.n.X.]  .@.O.Q ) ~ Y ~ ~ V g d 6 8 8 i 8 , : : * * * @ @ @ @ @ ",
"7 7 7 9 y P y.l.c.oX:XgXnXaXlXNXcXvXmXfXuXuXuXsXCXNXtXZ.i.m.q.q.XX!.e...e.B.B.#.O.~ V V V g d g i i i i i , : < * * @ @ @ @ . . ",
"w u 5 r K P y.c.x.OXOX*XhXiXaXlXNXCXAXSXkXBXFX8XxXFXuX/.N.m.m.q.J.S.n.e.B.A.B.+.^ V Y ~ Z V V d s s s 6 i i 6 , : < * @ O O O + ",
"w 7 q t L P y.x.oX+X%X*X$X`.lXlXvXGXJXJXZXZXVXqXxXDXuX`.{.N.M.i.n.e...+.n.B.r.` ^ ~ ) ) N d ~ ) a i i i p p i s , = * @ @ @ O O ",
"u 9 r t P 9.a.x.+XoX@X$Xl.`.MXmX8XGXKXJXKXJXCXxXdXVXsX-X>XN.M.i.q.q.q.e.n.B.w.Q ~ ~ ^ ~ V d V ~ b p i p b n a i 2 - = @ @ @ O + ",
"1 9 t J P l.OX+X%X+Xx.z.y..XMXbXqXGXKXJXSXSXGXVXxXvXsXiX=XN.N.m.n.n.n.n.B.B.:.[ O./ Y / ) Y p p p i i p S G N a 2 = * X . . .   ",
"& q f J 6.c.@XOX%X%Xp.6.9./.yX.XCXCXAXCXwXxXGXxXCXvXsXiX[.N.N.m.n.M.Z.Z.B.V.d.@.:.:./ [ :.~ 0 p p 0 p a S G G S 2 = * X o . .   ",
"9 d K L 6.z.OXOXoX&Xl.P t.s./..XvXsXxXxX4XqXGXvXCXvXsXyX~.M.N.m.M.M.S.Z.B.V.d.d.f.C.:.:.d.V 6 A p p p N S G F F c 2 = @ @ X @ . ",
"0 r K P 6.l.c.c.b.$Xl.' t.w.G.=X8X5X9X8X5X6XvXvXvXxXsXyX XW.{.M.R.W.!.R.D.C.f.f.>.C.f.C.H.) 6 A M M N N N S G F c 2 = @ $ @ @ @ ",
"5 9 K P 0.y.l.l.x.v.y.] ] ' g./.9X5X_.5XuX3X5XsXsXsXsXuX X{.[.M.^.[. X~.Q.D.C.f.f.G.G.(.yXD.p x M M M d p a h G c 2 = X X X o o ",
"1 9 B E { y.l.x.l.y.0._ E ` 8.9./.G./.aXpX5X5XcXcXuXcX7XQ.[.{.N. X}.zXNXT.C.D.:.D.(.).].).>.M j b b v p p i a -.h a : * $ X o o ",
"; 9 d K P y.l.x.x.p.0._ E ` 8.9.s.f.(.tXpXuXsXvXcX8X8X|.H.[.[.W.zXzXLXHX|.C.I.L.d.T.3X3XI./ M M b S b b b a m =.F a , * # # X o ",
"5 9 r y P y.v.OXx.p.9._ E Q ` ` d.G._.5XtXuXfXvXvX8X8X|.(..X X[.-XXXzXbX|.I.).U.:.f.).5Xf./ V A b G S b G D S D =.S : @ # # $ o ",
"5 7 0 y P h.v.#XoXl.y.8._ Q Q Q d.G.(.'.5X6XfXVXxXqXsX7X5XyX-X-XiX.X7XuX9X1X1XP.2.,.I.6Xj.:.-.A S F F S $.&.S b F a : @ $ @ X X ",
"8 8 0 e L 0.h.l.+Xc.l.9.} ` Q Q @.d.H.'.5X6XdXVXqXqXsX8X7XyX7XuXiX7XuXsX6X1X4X4X,X<.P.sXj.>.-.G D -.$.%.-.&.m 2 m a : @ @ $ # = ",
"7 8 9 e L 0.y.y.oXc.z.h.} _ E Q w.d.H..XtX5X6XqXqX8XuX7XyXyX5XsXuX9X6XsXuX6XeXrXeX,X1XfXj.,.=.F $.-.-.&.;.&.c = a a 2 = $ @ = 2 ",
"; ; 5 e E h.h.h.x.c.z.h.8._ [ @.d.A.Q.'..X5X5X1XsX8X7X|.5XtX5XcXDXfXwXxXfXsXeXrXBX2X,XdXj.>.=.-.-.;.;.;.;.*.3 - a 2 = = # = = 3 ",
"> ; u 9 L 0.y.y.c.v.v.z.9.8.w.B.w.G.E.E.(.tXyX|.cX8X|.I.'.5X3XcX0XwXxXVXfX0XwXZXZX2X<.0XP.P.-.-.-.;.;.1.1.%.3 - s 3 X @ # = * * ",
"; ; ; 9 f _ 0.y.{ h.g.z.h.0.@.d.r.Z.S.E.`.tX7X|.bX7X(.!.Q._.5XsXqX4XVXJXVX0X0XDXqXP.k.U.Y.4.<.5.P.;.-.;.;.G c 2 = , , = @ $ @ # ",
"> > > 6 d L { 0.{ 0.h.y.0.} | @.w.A.E.A.G.(.|..XbXyX}.!.F.(.9XuXwXeXVXDXdX1XU.6X4XP.k.U.L.>.<.P.4.$.%.-.$.m i 2 : , , , = = = = ",
"> < < ; 0 f P ' 8.8.8.{ } | | @.w.G.E.E.g./._..XlXXX}.R.S.F._.8XqXeXdXdX4X,XL.U.P.k.P.U.K.K.P.<X2.D h S b i i , , , , , 2 , - = ",
"< < * ; 8 f E ' 0.0.} { { [ | @.s.g.E.E./.`.`.(..X!.J.S.S.D.(.5XeX4XdX0X1X1XL.f.>.<.P.U.K.K.,X,X;.D a b i , , , , , , 2 4 4 , = ",
"* * * < 8 f E | } w.w.| _ E Q o.s.g.E.E./././.E.!.S.n.Z.S.F.(.|.6X2X0X2XU.Y.L.:.>.<.<X,XK.K.P.<X;.D S S i > , < 8 , , 2 x i , = ",
"% % % ; 8 V ^ | { | @.[ Y U U Q s.F./.Q.E.A.E.Q.F.Z.r.S.R.F.H.T.1X1X6X1XU.).L.:.>.K.,X2X,XY.<X<X;.%.F G c 8 8 > i i i i i 2 , = ",
"; ; ; ; 0 f E { { { ^ Y V B U U d.A.Q.Q.E.F.F.F.S.Z.S.F.R.D.D.T.).U.1XU.I.).I.f.2.>.<X6X6X4X,X<X;.$.F D i i x 8 v v v c i , , , ",
"9 ; ; ; 0 d L _ { _ Y B V V U U O.@.d.F.~.!.S.r.Z.Z.S.R.S.A.D.T._.I.).U.I.U.I.f.2.>.P.6X6X4X,X5.;.$.$.D s i c c b b b v i , 2 i ",
"w 5 > 8 q r Y @.Y Y d 0 d d B ^ ^ K r.!.!.R.r.Z.M.W.W.Z.s.d.C._.].].I.I.].1X).I.j.K.P.P.P.K.4.4.;.&.%.D N v i > 2 2 2 2 i x 2 = ",
"w 5 5 8 9 r f E f f d p M d f Y #.E r.S.~.R.t.r.q.n.n.B.A.s.C.(._._.I.I.U.].I.f.<.<.K.K.4.>.>.1.;.;.$.D S b i , n c 2 , 2 2 2 , ",
"5 5 5 8 9 0 r K f d d M M f V / O.+.!.R.=XS.t.r.X.q.e.r.A.s.d.G.f.f.f.I.U.).U.L.>.>.;.;.-.=.=.-.;.&.$.D S b i , n c 2 , , , , , ",
"& ; ; 8 0 e d f V d B V e e Y O.O.@.~.~.mX=Xr.+.X.q.e.r.s.d.w.d.G.G.I.].).).L.>.-.-.F F D S D F %.%.S m b p i , 2 , , 2 , = = : ",
"& ; 5 8 q d d e p q ~ O.r 9 B ^ V.+.F.!.MXzXZ.J W ....t.r.w.w.A.H.G.C.C.L.L.>.,.=.G n b b a b m m m b a b c i 2 : = : , , = , c ",
"> 7 8 9 q d q 6 8 0 ) V.Y e Y Y #.@.F.R.iX Xe.W  .+.o. .+.[ | d.(.D.d.:.:.>.>.>.G n i i i i i c c s s a b c x 4 2 , : 2 : = i H ",
"> 7 9 9 9 q 0 ; i 5 ) V.Y t Y Y O.@.F.Z.Z.t.` o.o.o.Q Q [ E E | yX}.D.f.>.:.-.-.S c i i 2 2 2 2 2 2 s i i c 2 2 2 2 2 c 2 = , n ",
"; > 7 5 0 M p > v 1 d O.y e Y V V.` } t.t.r.` U R T k B ^ ^ Q [ A.w.O.:.:.=.F G n i 2 2 2 : = = 3 , , 2 i 2 , = = : n H n * X = ",
"7 > > 5 8 8 6 5 5 0 q 0 e f E E :.O.R U R R T C B U U U U R R R O.O.^ ~ Z Z A b v A Z q 0 i - o - - 2 c n n 2 = # = i 2.3.* o $ ",
"7 5 > 5 8 8 6 6 0 d M d f Y / ^ O.^ R U U T C B B B B V V U U U ^ Q Y V M v v x j H ) Z 0 : = $ # # , i b c i = - 2 p 3.-.= # - ",
"7 5 > ; 6 8 8 8 q M V V V Y Q Q ^ Q R V B l k l M M M M M M M M V V M M p i 8 , > ) 3.) v = = 3 $ # = 2 b c 2 , - 2 i G S * # # ",
"7 > ; ; 5 5 8 0 q M V B B V Y B R R R B r r k k k k k k k k k k M M M v v i i , ; H 3.) i * @ - # # = 2 i c 2 , = 2 = i 2 @ # X ",
"> > ; ; ; 5 6 0 0 d V V B V B f V Y R V k r k k k q j j j k q q M M v v v x x x ; v A v > * @ @ - - , 2 i i 2 , = 4 = 2 2 - 3 X ",
"; ; > ; ; 5 6 0 e B V V V V V B B V Z V M k k k q q j j j j r k M v v p i 8 8 8 j 8 7 , , - = @ 3 3 2 2 i 2 , , * 2 @ - 3 # -   ",
"; ; 5 5 5 5 8 0 e B V B B V V B d M B B M k k j r r r k k k M M M v p p q 8 8 6 v j j , , - - - - - , , , , , , * =   # - $ #   ",
"; > 7 8 8 8 0 q e f B f d B V M r d r M M k j w r r r k M B B B M M v p q 8 8 8 j j 8 , - @ = - # # = : : : , 2 , =   # 3 $ - X "
};
