/* XPM */
static char *_41fc51e09a440d2f63a40ab1f05ea24PfnJkUE7xT0TlfZe[] = {
/* columns rows colors chars-per-pixel */
"64 64 184 2 ",
"   c None",
".  c gray13",
"X  c #212122",
"o  c #212124",
"O  c #222125",
"+  c #242034",
"@  c #25203E",
"#  c #271F4B",
"$  c #271E4C",
"%  c #271F4C",
"&  c #281F4E",
"*  c #281F52",
"=  c #281E53",
"-  c #281F53",
";  c #281E54",
":  c #281E55",
">  c #281E56",
",  c #291E56",
"<  c #281E57",
"1  c #2A1E5C",
"2  c #2A1E5D",
"3  c #2B1D69",
"4  c #2D1D78",
"5  c #2E1D79",
"6  c #2F1C84",
"7  c #301C86",
"8  c #301B8A",
"9  c #301B8B",
"0  c #301B90",
"q  c #311B92",
"w  c #311B93",
"e  c #321B93",
"r  c #321B94",
"t  c #361B9A",
"y  c #371B9A",
"u  c #361C9A",
"i  c #371C9B",
"p  c #381C9B",
"a  c #381C9C",
"s  c #381C9D",
"d  c #3A1C9F",
"f  c #3B1CA0",
"g  c #3C1CA3",
"h  c #3D1CA3",
"j  c #3F1DA7",
"k  c #401CA8",
"l  c #421CAB",
"z  c #421CAC",
"x  c #431CAC",
"c  c #431DAC",
"v  c #441DAE",
"b  c #441DAF",
"n  c #451DAF",
"m  c #471DB2",
"M  c #471DB3",
"N  c #481DB3",
"B  c #4B1DB8",
"V  c #4B1EB9",
"C  c #4C1DB9",
"Z  c #4C1EB9",
"A  c #4D1DBB",
"S  c #4C1EBA",
"D  c #4D1EBA",
"F  c #4D1EBB",
"G  c #4D1DBC",
"H  c #4E1DBD",
"J  c #4E1EBC",
"K  c #4E1EBD",
"L  c #501EC0",
"P  c #511EC0",
"I  c #511EC1",
"U  c #511FC1",
"Y  c #521FC1",
"T  c #5320C1",
"R  c #5321C1",
"E  c #5421C1",
"W  c #5422C1",
"Q  c #5523C1",
"!  c #5625C1",
"~  c #5827C1",
"^  c #5927C1",
"/  c #5828C1",
"(  c #5928C1",
")  c #5929C1",
"_  c #6032C1",
"`  c #6132C1",
"'  c #6132C2",
"]  c #693BC1",
"[  c #683BC2",
"{  c #693CC1",
"}  c #693DC1",
"|  c #683CC2",
" . c #693CC2",
".. c #6D41C1",
"X. c #6F43C2",
"o. c #6F44C2",
"O. c #6F45C2",
"+. c #7147C1",
"@. c #7045C2",
"#. c #754BC1",
"$. c #744BC2",
"%. c #754BC2",
"&. c #764CC2",
"*. c #764DC2",
"=. c #774DC2",
"-. c #774EC2",
";. c #7B53C2",
":. c #7B54C2",
">. c #7C54C2",
",. c #7D56C2",
"<. c #7E56C2",
"1. c #7E57C2",
"2. c #7F58C2",
"3. c #7F58C3",
"4. c #8058C3",
"5. c #8059C4",
"6. c #8059C5",
"7. c #815AC5",
"8. c #815BC6",
"9. c #825AC6",
"0. c #825BC7",
"q. c #835BC7",
"w. c #845BC8",
"e. c #845CC8",
"r. c #845CC9",
"t. c #855DCA",
"y. c #855ECA",
"u. c #855ECB",
"i. c #865ECA",
"p. c #865ECB",
"a. c #865FCB",
"s. c #865ECC",
"d. c #875FCC",
"f. c #875FCD",
"g. c #8860CD",
"h. c #8B63D1",
"j. c #8B63D2",
"k. c #8C64D2",
"l. c #8C64D3",
"z. c #8E65D4",
"x. c #8E66D5",
"c. c #9067D6",
"v. c #9068D7",
"b. c #936AD9",
"n. c #946ADA",
"m. c #966DDD",
"M. c #9A70E2",
"N. c #9A71E2",
"B. c #9A71E3",
"V. c #9A72E3",
"C. c #9B72E3",
"Z. c #9B72E4",
"A. c #9E74E7",
"S. c #9E75E7",
"D. c #9F75E7",
"F. c #9F76E9",
"G. c #A177EA",
"H. c #A278EB",
"J. c #A379EC",
"K. c #A47AEE",
"L. c #A57BEE",
"P. c #A67CEF",
"I. c #A87EF3",
"U. c #A97FF3",
"Y. c #A97EF4",
"T. c #A97FF4",
"R. c #AB81F6",
"E. c #AC82F8",
"W. c #AD82F8",
"Q. c #AD83F9",
"!. c #AF84FA",
"~. c #AF84FB",
"^. c #AF85FB",
"/. c #B084FB",
"(. c #B086FC",
"). c #B186FD",
"_. c #B187FD",
"`. c #B287FE",
"'. c #B386FF",
"]. c #B287FF",
"[. c #B387FF",
"{. c #B288FF",
"}. c #B388FF",
"|. c #B488FF",
/* pixels */
"                                                                                                                                ",
"                                                                                                                                ",
"                                                                                                                                ",
"                                                                                                                                ",
"                                                                                                                                ",
"                                                                                                                                ",
"                                                                                                                                ",
"                                    {.].].{.{.{.{.{.].{.                                                                        ",
"                              {.{.{.{.{.{.{.{.{.{.{.{.{.{.{.{.].                                                                ",
"                          ].{.{.{.{.{.{.{.{.{.{.{.{.{.{.{.{.{.{.{.{.].                                                          ",
"                        ].{.{.{.{.{.{.{.{.{.{.{.{.{.{.{.{.{.{.{.{.{.{.{.{.                                                      ",
"                      {.{.{.{.{.{.{.{.{.{.{.{.{.{.{.{.{.{.{.{.{.{.{.{.{.{.].].                                                  ",
"                    ].{.{.{.{.{.{.E.M.z.t.0.0.t.k.m.H.].{.{.{.{.{.{.{.{.{.{.{.].{.                                              ",
"                    {.{.{.{.{.!.b.1.1.1.1.1.1.1.1.1.1.0.v.J.].{.{.{.{.{.{.{.{.{.{.].                                            ",
"                  {.{.{.{.{.R.t.1.1.1.1.1.1.1.1.1.1.1.1.1.1.0.Z.].{.{.{.{.{.{.{.{.{.].].                                        ",
"                  {.{.{.{.!.t.1.1.1.1.1.1.1.1.1.1.1.1.1.1.1.1.1.t.A.].{.{.{.{.{.{.{.{.{.].                                      ",
"                ].{.{.{.{.b.1.1.1.1.1.1.o._ ~ E E ~ _ | =.1.1.1.1.1.f.T.{.{.{.{.{.{.{.{.{.].                                    ",
"                ].{.{.{.E.1.1.1.1.1.=.( I I I I I I I I I ( | ;.1.1.1.3.M.{.{.{.{.{.{.{.{.{.{.                                  ",
"                {.{.{.{.M.1.1.1.1.=.E I I I I I I I I I I I I R | 1.1.1.1.j.E.{.{.{.{.{.{.{.{.{.{.                              ",
"                ].{.{.{.z.1.1.1.1.( I I I I I I K D K I I I I I I E X.1.1.1.w.T.{.{.{.{.{.{.{.{.{.].                            ",
"                ].{.{.{.t.1.1.1.o.I I I I I x u q q q r d x K I I I I _ ;.1.1.0.L.{.{.{.{.{.{.{.{.{.{.                          ",
"                ].{.{.{.0.1.1.1._ I I I I d q q q q q q q q q g D I I I ! %.1.1.3.F.{.{.].    {.{.{.{.].                        ",
"                ].{.{.{.0.1.1.1.~ I I I x q q q q q q q q q q q r j I I I R +.1.1.3.F.{.{.{.      ].{.{.{.                      ",
"                ].{.{.{.t.1.1.1.E I I I u q q q q 4 ; # * 3 9 q q q t V I I I X.1.1.3.L.{.{.{.      {.{.{.                      ",
"                  {.{.{.j.1.1.1.R I I K q q q q ; X X X X X O # 6 q q r N I I I X.1.1.0.I.{.{.].        {.{.                    ",
"                  {.{.{.m.1.1.1.( I I D q q q 4 X X X X X X X X O 1 q q q b I I I +.1.1.w.E.{.{.{.        ].{.                  ",
"                  ].{.{.H.1.1.1._ I I D q q q ; X X X X X X X X X X @ 9 q q b I I R %.1.1.j.{.{.{.          {.].                ",
"                  ].{.{.].0.1.1.| I I I r q q # X X X X X X X X X X X + 7 q q M I I ! :.1.1.M.{.{.{.            ].              ",
"                    {.{.{.c.1.1.=.I I I d q q * X X X X X X X X X X X X + 9 q r V I I _ 1.1.4.I.{.{.{.                          ",
"                    {.{.{.J.1.1.1.( I I l q q 3 X X X X X X X X X X X X X @ q q t I I I X.1.1.f.].{.{.                          ",
"                      {.{.].0.1.1.| I I K q q 9 O X X X X X X X X X X X X X 1 q q l I I E 1.1.1.A.{.{.{.                        ",
"                      {.{.{.Z.1.1.:.E I I g q q # X X X X X X X X X X X X X O 6 q r D I I ] 1.1.t.].{.{.                        ",
"                        {.{.].t.1.1.] I I D q q 6 O X X X X X X X X X X X X X $ q q g I I E ;.1.1.Z.{.{.{.                      ",
"                        {.{.{.A.1.1.1.E I I j q q 1 X X X X X X X X X X X X X O 9 q q K I I | 1.1.0.].{.{.                      ",
"                          {.{.].f.1.1.o.I I I u q q @ X X X X X X X X X X X X X 3 q q x I I ( 1.1.1.G.{.{.].                    ",
"                          ].{.{.T.3.1.1._ I I D r q 9 + X X X X X X X X X X X X * q q d I I I =.1.1.k.{.{.{.                    ",
"              {.            ].{.{.M.1.1.;.! I I M q q 7 + X X X X X X X X X X X $ q q r I I I | 1.1.4.!.{.{.{.                  ",
"                {.].          {.{.].j.1.1.%.R I I b q q 9 @ X X X X X X X X X X ; q q q D I I _ 1.1.1.H.{.{.{.                  ",
"                  {.{.        {.{.{.E.w.1.1.+.I I I b q q q 1 O X X X X X X X X 4 q q q D I I ( 1.1.1.m.{.{.{.                  ",
"                    {.].        {.{.{.T.0.1.1.X.I I I N r q q 6 # O X X X X X ; q q q q K I I E 1.1.1.k.{.{.{.                  ",
"                      {.].{.      {.{.{.L.3.1.1.X.I I I D p q q q 9 3 * & ; 4 q q q q t I I I E 1.1.1.t.{.{.{.{.                ",
"                      {.{.{.{.      {.{.{.F.3.1.1.+.R I I I l r q q q q q q q q q q q x I I I ~ 1.1.1.0.{.{.{.].                ",
"                        {.{.{.{.].    ].{.{.F.3.1.1.%.! I I I D g q q q q q q q q q f I I I I _ 1.1.1.0.{.{.{.].                ",
"                          {.{.{.{.{.{.|.{.{.{.P.0.1.1.:._ I I I I K x d r q q q t x I I I I I +.1.1.1.f.{.{.{.{.                ",
"                            ].{.{.{.{.{.].{.{.{.T.w.1.1.1.X.E I I I I I I K D K I I I I I I ( 1.1.1.1.z.{.{.{.{.                ",
"                              ].{.{.{.{.{.{.{.{.{.E.j.1.1.1.1.] E I I I I I I I I I I I I E =.1.1.1.1.M.{.{.{.{.                ",
"                                  {.{.{.{.{.{.{.{.{.{.M.0.1.1.1.;.| ( I I I I I I I I I ( =.1.1.1.1.3.E.{.{.{.{.                ",
"                                    {.{.{.{.{.{.{.{.{.{.T.g.1.1.1.1.1.=.| _ ( E E ~ _ +.1.1.1.1.1.1.n.{.{.{.{.{.                ",
"                                      {.{.{.{.{.{.{.{.{.{.].A.t.1.1.1.1.1.1.1.1.1.1.1.1.1.1.1.1.1.t.!.{.{.{.{.                  ",
"                                        ].{.{.{.{.{.{.{.{.{.{.].Z.0.1.1.1.1.1.1.1.1.1.1.1.1.1.1.t.R.{.{.{.{.].                  ",
"                                            {.{.{.{.{.{.{.{.{.{.{.].G.k.4.1.1.1.1.1.1.1.1.1.3.n.!.{.{.{.{.{.                    ",
"                                              {.{.{.{.{.{.{.{.{.{.{.{.{./.H.m.k.t.0.0.f.z.M.E.{.{.{.{.{.{.].                    ",
"                                                  ].].{.{.{.{.{.{.{.{.{.{.{.{.{.{.{.{.{.{.{.{.{.{.{.{.{.{.                      ",
"                                                      ].{.{.{.{.{.{.{.{.{.{.{.{.{.{.{.{.{.{.{.{.{.{.{.].                        ",
"                                                          ].].{.{.{.{.{.{.{.{.{.{.{.{.{.{.{.{.{.{.].{.                          ",
"                                                                ].].{.{.{.{.{.{.{.{.{.{.{.{.{.].{.                              ",
"                                                                        {.{.].{.{.{.{.].{.{.                                    ",
"                                                                                                                                ",
"                                                                                                                                ",
"                                                                                                                                ",
"                                                                                                                                ",
"                                                                                                                                ",
"                                                                                                                                ",
"                                                                                                                                "
};
