/* XPM */
static char *_eec23625c4e4588ed7a5ac031f7df05Rcd8AaAXcDuskQZx[] = {
/* columns rows colors chars-per-pixel */
"64 64 136 2 ",
"   c None",
".  c #44279F",
"X  c #4527A0",
"o  c #4628A1",
"O  c #4B2BA4",
"+  c #502DA7",
"@  c #542FAA",
"#  c #4D30A4",
"$  c #5033A5",
"%  c #5631AB",
"&  c #5B33AE",
"*  c #5738AA",
"=  c #5B3BAD",
"-  c #5E35B1",
";  c #6036B1",
":  c #633BB4",
">  c #693FB6",
",  c #5F40AF",
"<  c #6644B4",
"1  c #6A42B7",
"2  c #6B4CB5",
"3  c #6D45B9",
"4  c #6F4ABA",
"5  c #744DBC",
"6  c #6E54B6",
"7  c #6F50B8",
"8  c #7653BC",
"9  c #7953BE",
"0  c #7758BC",
"q  c #7A5BBD",
"w  c #7E61BF",
"e  c #7F6BBF",
"r  c #7E57C2",
"t  c #7F5AC2",
"y  c #7F60C1",
"u  c #815BC3",
"i  c #8562C4",
"p  c #8966C7",
"a  c #8A69C7",
"s  c #8967C8",
"d  c #8D6BC9",
"f  c #916FCB",
"g  c #8F71CA",
"h  c #9575CD",
"j  c #957ACC",
"k  c #997ACF",
"l  c #9B7DD0",
"z  c #9C83CF",
"x  c #9E82D1",
"c  c #A186D2",
"v  c #A58BD5",
"b  c #A98FD6",
"n  c #A795D2",
"m  c #AB92D7",
"M  c #AC9AD6",
"N  c #AF96D9",
"B  c #AF98D9",
"V  c #B39DDB",
"C  c #B29CDB",
"Z  c #B19CDB",
"A  c #B49EDB",
"S  c #B39EDC",
"D  c #B59FDC",
"F  c #B69FDC",
"G  c #B39DDB",
"H  c #B5A0DC",
"J  c #B5A0DD",
"K  c #B7A1DC",
"L  c #B7A2DD",
"P  c #B6A1DC",
"I  c #B9A4DD",
"U  c #BBA7DF",
"Y  c #BCA7DF",
"T  c #BAA6DF",
"R  c #BCA8DF",
"E  c #BCA9DF",
"W  c #BFACE0",
"Q  c #BDABE0",
"!  c #C0AEE1",
"~  c #C0ADE2",
"^  c #C0AFE2",
"/  c #C1AEE1",
"(  c #C5B3E3",
")  c #C6B4E3",
"_  c #C6B4E4",
"`  c #C7B5E4",
"'  c #C7B7E4",
"]  c #C7B6E5",
"[  c #C2B1E2",
"{  c #C9B9E6",
"}  c #CABBE6",
"|  c #CBBCE6",
" . c #CCBCE6",
".. c #CDBFE7",
"X. c #CEBEE7",
"o. c #CBBCE6",
"O. c #CEC1E8",
"+. c #CFC1E8",
"@. c #CFC2E8",
"#. c #D1C3E8",
"$. c #D0C3E9",
"%. c #D1C4E9",
"&. c #D2C5E9",
"*. c #D3C6E9",
"=. c #D2C4EA",
"-. c #D2C6EA",
";. c #D4C7EA",
":. c #D1C4E9",
">. c #D6CAEB",
",. c #D6CBEB",
"<. c #D7CCEC",
"1. c #D5CAEB",
"2. c #D8CCEC",
"3. c #D9CEED",
"4. c #D9CDED",
"5. c #DBD0ED",
"6. c #DDD3EE",
"7. c #DED4EE",
"8. c #DED5EF",
"9. c #DFD6EF",
"0. c #DCD1EE",
"q. c #DFD5F0",
"w. c #DFD6F0",
"e. c #E0D7F0",
"r. c #E0D7F0",
"t. c #E4DBF2",
"y. c #E4DCF2",
"u. c #E4DBF2",
"i. c #E7E1F4",
"p. c #EAE3F4",
"a. c #EAE3F5",
"s. c #EAE4F5",
"d. c #ECE5F5",
"f. c #ECE6F5",
"g. c #EDE7F6",
"h. c #EDE6F6",
/* pixels */
"                                                                                                                                ",
"                                                                                                                                ",
"                                                                                                                                ",
"                                                                                                                                ",
"                                                                                                                                ",
"                                                                                                                                ",
"                                                                                                                                ",
"                                                                - - - - - - -                                                   ",
"                                                          - - - - - - - - - - - - - -                                           ",
"                                                    - - - - - - - : : > > : : - - - - - -                                       ",
"                                                - - - - ; 1 5 9 r r r r r r r r 5 3 : - - - >                                   ",
"                                              - - - 1 5 r r r r r r r r r r r r r r r 5 > - - >                                 ",
"                                          - - - > r r r r r r r u i p p a s u t r r r r r 5 - - > d                             ",
"                                        - - : 5 r r r r r 8 p h h h h h h h h h a u i t r r 5 - - 3                             ",
"                                      - - > r r r r 5 5 h h h h h h h h h h h h h Y g.) r r r 5 - - t                           ",
"                                    - - 1 r r r 5     h h h h h h h h h h h h h h ..g.9.t r r r 3 - - f                         ",
"                                  - - 3 r r r 5   h h h h h h h h h h h h h h h h x ^ v d r r r r : - 8 h                       ",
"                                - - 3 r r 5     h h h h h h h h h h h h h h h h h h h h h p r r r 5 - : h                       ",
"                              - - > r r 5     h h h h h h h h h h d p a h h h h h h h h h h u r r r : - a                       ",
"                            - - : r r       h h h h h h h h t 4 : : 4 9 8 9 d h h h h h h h a r r r 3 - 8 h                     ",
"                          - - - 9 8       h h h h h h d 5 - ; t x V V V V V m c h h h h h h h r r h p - 3 h                     ",
"                        - - - 9 5       h h c h h h 5 - - 8 v V V K K V V V V V B k h h l h h u r D b - 1 h                     ",
"                        - - u 6.      h h U g.2.i : - ; d V V V S ,.2.` ` ^ K V V C k h t.b h u r r r : 1 h                     ",
"                      - - - 5       h h h ` g.e.- - - j V V V W @.%.%.%.%.%.@.R V V b h l h h u r r r > 4 h p       -           ",
"                    - - - 3       h h h h h c 8 - - h V V K { %.%.%.%.%.%.%.%.$.U V V k h h h t r r r 1 5 h q       -           ",
"                    - - :       h h h h p : - - - i V V K ..%.%.%.9.p.g.g.9.%.%...V V c h h f r r r r 1 t h 0                   ",
"                  - - -         h h h p : - - - 1 B V A | %.%.,.p.g.g.g.g.g.2.%.p.^ V m h h s r r r r 1 a h 2     -             ",
"                  - - -       h h h p : - - - - h V V ( %.%.<.g.g.g.g.g.g.g.w.%.%.K V m h h u r r r r 3 h h ,     -             ",
"                - - -       h h h d : - - - - 1 V V U %.%.;.s.g.g.g.g.g.g.g.9.%.%.K V m h d i b r r r r h v e     -             ",
"                - -         h h h 1 - - - - - d V V ` %.%.y.g.g.g.g.g.g.g.g.0.%.$.S V b h u f ` r r r a h B M   - -             ",
"              - - -       h h h 5 - - - - - : m V D $.%.<.g.g.g.g.g.g.g.g.g.%.%.{ V V v d r r r r r u h h 2     -               ",
"              - -         h h i - - - - - - u C V Q %.%.r.g.g.g.g.g.g.g.g.e.%.%.^ V V l u r r r r r a h h #   - -               ",
"              - -       h h h > - - - - j 5 h V V ^ %.%.i.g.g.g.g.g.g.g.p.%.%.@.D V C i r r r r r u h h y X   - -               ",
"            - -         h h t - - - - - E h k V V ^ %.%.p.g.g.g.g.g.g.g.,.%.%.^ D U x r r r r r t h h h *   - -                 ",
"            - -         h h > - - - - - * h h V V W %.%.y.g.g.g.g.g.s.<.%.%.{ A w.g.B r r r r r a h h i . & - -                 ",
"            -         d h C z - - - - % q h h B V K %.%.,.g.g.g.g.r.,.%.%...K V y.g.R r r r r i h h h * O - - -                 ",
"            -         h h p q - - - - O h h l ^ V V { %.%.;.6.0.;.%.%.%.{ K V V m m u r r r u h h h 0 X - - -                   ",
"            -         h d - - - - - @ * h h c $.V V K ..%.%.%.%.%.%.$.[ A V V c t r r r r u h h l d O % - - -                   ",
"          -           h u - - - - - O < h h h h v V V D [ ..%.$.| [ K V V V c u r r r r u h h h t.q + - - -                     ",
"          -         p h 5 - - - - & X 2 h h h h h c V V V V V V V V V V C h r r r r r u f h h h 2 O - - -                       ",
"                    a h 1 - - - - % X 2 h h h h h u h C V V V V V V C x u r r r r r u h h h h 2 O - - - -                       ",
"                    p h : - - - - @ $ 6 h h h h h i r u d l x x k d u r r r r r r u h h h h 2 O & - - -                         ",
"                    s h - - - - - w i.g.U h h h h f t r r r r r r r r r r r r u d h h h h 2 O & - - -                           ",
"                      h - - - - - P g.g.2.h h h h h d u r r r r r r r r r u p h h h h h 2 O - - - - -                           ",
"                      h : - - - - g g.g.n h h h h h h h p t r V i.B r u a v v h h h h < + - - - - -                             ",
"                      h 1 - - - - - 8 6 X 0 h h h h h h h h d 2.g.,.h h h K K h h d * % - - - - -                               ",
"                      f 5 - - - - - - O X X t h h h h h h h h b ..v h h h h h h y $ & - - - - -                                 ",
"                        u - - - - - - - O X X 0 h h h h h h h h h h h h h h g < @ - - - - - -                                   ",
"                        h - - - - - - - - + X X = d h h h h h h h h h h h 7 & - - - - - - -                                     ",
"                        h 5 - - - - - - - - & O X O < i h h h h h h i 2 % - - - - - - - -                                       ",
"                          h - - - - - - - - - - - @ O O O * = = * % & - - - - - - - - -                                         ",
"                              - - - - - - - - - - - - - - - - - - - - - - - - - - -                                             ",
"                                - - - - - - - - - - - - - - - - - - - - - - - - -                                               ",
"                                    - - - - - - - - - - - - - - - - - - - - -                                                   ",
"                                      - - - - - - - - - - - - - - - - - -                                                       ",
"                                            - - - - - - - - - - - - -                                                           ",
"                                                      - - -                                                                     ",
"                                                                                                                                ",
"                                                                                                                                ",
"                                                                                                                                ",
"                                                                                                                                ",
"                                                                                                                                ",
"                                                                                                                                ",
"                                                                                                                                "
};
