/* XPM */
static char *d428399c0fd643e18f7afe5e7f5b7ea8Zt9OnuuHzqIuk0Bu[] = {
/* columns rows colors chars-per-pixel */
"64 64 162 2 ",
"   c None",
".  c #FFA301",
"X  c #FFAA06",
"o  c #FFAD0A",
"O  c #FFB10D",
"+  c #FFB511",
"@  c #FFBD17",
"#  c #FFBC17",
"$  c #FFBC15",
"%  c #FFBA15",
"&  c #FFBC18",
"*  c #FFBD18",
"=  c #FFBC19",
"-  c #FFBD19",
";  c #FFBE18",
":  c #FFBF18",
">  c #FFBE19",
",  c #FFBF19",
"<  c #FFBD1A",
"1  c #FFBE1A",
"2  c #FFBF1A",
"3  c #FFBE1B",
"4  c #FFBF1B",
"5  c #FFBF1C",
"6  c #FFBE1A",
"7  c #FFC019",
"8  c #FFC01A",
"9  c #FFC01B",
"0  c #FFC11B",
"q  c #FFC21B",
"w  c #FFC01C",
"e  c #FFC11C",
"r  c #FFC11D",
"t  c #FFC31C",
"y  c #FFC21D",
"u  c #FFC31D",
"i  c #FFC21E",
"p  c #FFC31E",
"a  c #FFC21F",
"s  c #FFC31F",
"d  c #FFC41D",
"f  c #FFC51D",
"g  c #FFC41E",
"h  c #FFC41F",
"j  c #FFC51F",
"k  c #FFC61F",
"l  c #FFC31D",
"z  c #FFC320",
"x  c #FFC321",
"c  c #FFC420",
"v  c #FFC520",
"b  c #FFC421",
"n  c #FFC521",
"m  c #FFC720",
"M  c #FFC621",
"N  c #FFC622",
"B  c #FFC722",
"V  c #FFC623",
"C  c #FFC723",
"Z  c #FFC724",
"A  c #FFC621",
"S  c #FFC821",
"D  c #FFC822",
"F  c #FFC922",
"G  c #FFC823",
"H  c #FFC923",
"J  c #FFCA22",
"K  c #FFCA23",
"L  c #FFCB23",
"P  c #FFC824",
"I  c #FFC924",
"U  c #FFC925",
"Y  c #FFCA24",
"T  c #FFCB24",
"R  c #FFCA25",
"E  c #FFCB25",
"W  c #FFCB26",
"Q  c #FFCB27",
"!  c #FFCC25",
"~  c #FFCC26",
"^  c #FFCD26",
"/  c #FFCC27",
"(  c #FFCD27",
")  c #FFCE26",
"_  c #FFCE27",
"`  c #FFCF27",
"'  c #FFCA24",
"]  c #FFCD28",
"[  c #FFCC29",
"{  c #FFCD29",
"}  c #FFCE28",
"|  c #FFCF28",
" . c #FFCE29",
".. c #FFCF29",
"X. c #FFCE2A",
"o. c #FFCF2A",
"O. c #FFCE2B",
"+. c #FFCF2B",
"@. c #FFCE29",
"#. c #FFD026",
"$. c #FFD027",
"%. c #FFD02A",
"&. c #FFD12A",
"*. c #FFD02B",
"=. c #FFD12B",
"-. c #FFD22A",
";. c #FFD32A",
":. c #FFD22B",
">. c #FFD32B",
",. c #FFD42A",
"<. c #FFD02C",
"1. c #FFD12C",
"2. c #FFD22C",
"3. c #FFD32C",
"4. c #FFD32D",
"5. c #FFD32E",
"6. c #FFD42C",
"7. c #FFD52C",
"8. c #FFD42D",
"9. c #FFD52D",
"0. c #FFD42E",
"q. c #FFD52E",
"w. c #FFD42F",
"e. c #FFD52F",
"r. c #FFD62E",
"t. c #FFD62F",
"y. c #FFD72F",
"u. c #FFD32D",
"i. c #FFD730",
"p. c #FFD731",
"a. c #FFD632",
"s. c #FFD732",
"d. c #FFD731",
"f. c #FFD830",
"g. c #FFD930",
"h. c #FFD831",
"j. c #FFD931",
"k. c #FFDA31",
"l. c #FFD832",
"z. c #FFD932",
"x. c #FFD833",
"c. c #FFD933",
"v. c #FFDA32",
"b. c #FFDB32",
"n. c #FFDA33",
"m. c #FFDB33",
"M. c #FFDC33",
"N. c #FFDD33",
"B. c #FFDB34",
"V. c #FFDA35",
"C. c #FFDB35",
"Z. c #FFDC34",
"A. c #FFDD34",
"S. c #FFDC35",
"D. c #FFDD35",
"F. c #FFDE34",
"G. c #FFDF34",
"H. c #FFDC36",
"J. c #FFDD36",
"K. c #FFDE36",
"L. c #FFDF37",
"P. c #FFDB33",
/* pixels */
"                                                                                                                                ",
"                                                                                                                                ",
"                                                                                                                                ",
"                                                                                                                                ",
"                                                              D.D.                                                              ",
"                                                            B.j.j.j.                                                            ",
"                                                            j.8.5.j.                                                            ",
"                                                          D.5.o.%.8.M.                                                          ",
"                                                          p.%.E E %.j.                                                          ",
"                                                        M.8.^ M D ^ 8.D.                                                        ",
"                                                        j.%.D y y D o.j.                                                        ",
"                                                      D.8.^ h 1 1 y E 8.j.                                                      ",
"                                                      j.%.D 9 % % 9 D %.j.                                                      ",
"                                                    D.8.^ M 1 + + 1 y ^ 8.j.                                                    ",
"                                                    j.%.D 9 % O O % 9 D %.j.                                                    ",
"                                                  M.8.o.M 1 + o o + @ M o.8.M.                                                  ",
"                                                  j.%.D 9 % o X X O % 1 D 5.j.                                                  ",
"                                                D.8.^ M 1 + o . . o + 1 h ^ 8.B.                                                ",
"                                                j.5.E 9 % O X . . X O % 5 E %.j.                                                ",
"                                              D.8.^ M 1 + o . . . . o + 1 y o.8.M.                                              ",
"                                              j.%.E y % O X . . . . X O % 9 D 5.j.                                              ",
"                                  D.D.j.j.j.p.8.o.M 1 + o . . . . . . o + 1 M o.8.p.j.j.M.M.B.                                  ",
"                    j.B.j.j.j.p.8.8.5.%.%.o.^ E E y % O X . . . . . . X O % y E E ^ o.o.%.5.8.8.8.p.j.j.D.D.                    ",
"          j.j.p.8.8.8.%.o.o.^ ^ E E D D h h y 9 9 1 + o . . . . . . . . o + 1 9 9 y h h M D M E ^ ^ o.%.%.%.8.8.p.j.B.          ",
"        j.j.8.%.o.E D M M M h y 1 9 1 1 % % % % + O O X . . . . . . . . X O O + % % % % 1 1 1 1 y h y M M D E o.%.8.j.B.        ",
"        D.j.8.o.^ M h y 1 % % % + + + + O o o o o X X . . . . . . . . . . X X o o o o O O O + + + % @ 1 y h D E %.8.j.D.        ",
"          M.j.%.^ D h 1 1 % + O o o X X . . . . . . . . . . . . . . . . . . . . . . . . X X o o O + % 1 9 x D ^ %.j.D.          ",
"            D.p.5.^ D y 1 % + O o X . . . . . . . . . . . . . . . . . . . . . . . . . . . . X o O + % 1 y D ^ 5.j.B.            ",
"              M.p.,.^ D h 1 % + O X . . . . . . . . . . . . . . . . . . . . . . . . . . . . X O + % 1 h D o.5.p.D.              ",
"                M.j.5.o.M y 1 % + O o . . . . . . . . . . . . . . . . . . . . . . . . . . X O + % 1 h E o.%.j.D.                ",
"                  B.p.8.#.D M 9 % + O o X . . . . . . . . . . . . . . . . . . . . . . . o O + % 9 h D o.%.j.D.                  ",
"                    D.j.8.^ D h 9 % + O o X . . . . . . . . . . . . . . . . . . . . X o o + @ 9 h E o.8.j.D.                    ",
"                      D.j.8.o.E M 9 % + O X X . . . . . . . . . . . . . . . . . . X o O + % 1 h D o.8.j.D.                      ",
"                        B.j.8.%.E M 9 % + O o X . . . . . . . . . . . . . . . . X X O + % 1 h E %.8.j.D.                        ",
"                            j.5.#.D M 9 @ + O o . . . . . . . . . . . . . . . . o O + % 9 h E o.8.j.                            ",
"                              j.8.o.E M 9 % + o . . . . . . . . . . . . . . . . o + % 9 h E o.8.j.                              ",
"                                j.8.o.E M 1 + o . . . . . . . . . . . . . . . . o + 1 M E o.8.j.                                ",
"                                  j.8.^ h % O o . . . . . . . . . . . . . . . . o O % y ^ 8.j.                                  ",
"                                  j.5.E y % O X . . . . . . . . . . . . . . . . X O % y ^ 8.B.                                  ",
"                                  j.5.D 9 % O X . . . . . . . . . . . . . . . . X O % y D %.j.                                  ",
"                                  j.%.M 1 + o . . . . . . . . X X . . . . . . . . o + 1 D %.j.                                  ",
"                                  j.o.M 1 + o . . . . . . X o O o o X . . . . . . o + 1 h ^ p.                                  ",
"                                B.8.^ h @ O X . . . . X o o O + + O o o X . . . . X O @ h ^ 8.D.                                ",
"                                D.8.E h % O X . . X X o O + % 1 @ % + O o X X . . X O % y E 8.D.                                ",
"                                j.8.E 5 % O X X X o O + % % 1 y y 1 % % + O o X X X o % y D %.j.                                ",
"                                j.%.Z y % O o o O + + % 1 y h M D h y 1 @ + O O o o o % 9 M o.j.                                ",
"                                p.o.M 1 + O O + + % 1 y h D E ^ ^ E M y 9 1 % + + O O + 1 M o.p.                                ",
"                                8.^ x 1 % + + % @ 9 h M D ^ %.8.8.%.o.E M y y 1 % + + + @ h ^ 8.                                ",
"                              j.8.^ y 1 % % 1 1 y M E ^ %.8.p.j.j.p.8.%.^ D M h 1 1 % % 1 y ^ 8.D.                              ",
"                              M.5.E y 1 1 1 y M D o.%.8.8.j.D.    D.j.p.8.%.^ E M y 1 1 1 y E 5.D.                              ",
"                              j.5.E y y y M E ^ %.5.p.j.D.            D.j.p.5.o.^ E M y 9 h D %.j.                              ",
"                              j.o.D M h D ^ o.5.8.j.B.                    j.j.8.5.o.^ D h M D o.j.                              ",
"                              8.%.^ D ^ o.%.8.j.D.                            j.j.8.%.o.^ D ^ o.8.                              ",
"                            B.8.%.o.o.%.8.j.M.                                    B.j.8.%.o.o.%.8.D.                            ",
"                            D.8.8.%.8.j.j.                                            j.j.8.%.5.8.M.                            ",
"                            j.j.8.p.j.M.                                                M.j.p.8.p.j.                            ",
"                            D.D.B.D.                                                        D.B.B.D.                            ",
"                                                                                                                                ",
"                                                                                                                                ",
"                                                                                                                                ",
"                                                                                                                                ",
"                                                                                                                                ",
"                                                                                                                                ",
"                                                                                                                                "
};
