/* XPM */
static char *_8210e8a9e9a448fa0c9ae1086402d65h4wTnzWdE6Tjfs1A[] = {
/* columns rows colors chars-per-pixel */
"64 64 202 2 ",
"   c None",
".  c black",
"X  c #030202",
"o  c #040202",
"O  c #0F0908",
"+  c #0F0909",
"@  c #1C1110",
"#  c #1C1210",
"$  c #311F1B",
"%  c #2F2C1F",
"&  c #382320",
"*  c #3E2723",
"=  c #3F2824",
"-  c #43322F",
";  c #4D3F30",
":  c #4E3F30",
">  c #43403F",
",  c #534834",
"<  c #585039",
"1  c #59513A",
"2  c #564C4A",
"3  c #635E54",
"4  c #626A44",
"5  c #6D704A",
"6  c #6E704B",
"7  c #6E724C",
"8  c #6F734C",
"9  c #6E7554",
"0  c #6E6967",
"q  c #6F6A68",
"w  c #7CB342",
"e  c #7DB343",
"r  c #7CB442",
"t  c #7DB444",
"y  c #FFA726",
"u  c #FFA727",
"i  c #FFA92A",
"p  c #FFA92B",
"a  c #FFAA2B",
"s  c #FFAC31",
"d  c #FFAC33",
"f  c #FFAD35",
"g  c #FFAE36",
"h  c #FFAE37",
"j  c #FFAF3A",
"k  c #FFB03C",
"l  c #FFB03D",
"z  c #FCB13E",
"x  c #FFB13E",
"c  c #81905B",
"v  c #82905C",
"b  c #80B647",
"n  c #81B748",
"m  c #81B649",
"M  c #81B749",
"N  c #82B74A",
"B  c #84B94C",
"V  c #84B94D",
"C  c #85B94E",
"Z  c #8DBE57",
"A  c #859E61",
"S  c #8CA265",
"D  c #8EA266",
"F  c #99B870",
"G  c #9CB972",
"H  c #DCBE56",
"J  c #F3B240",
"K  c #FFB241",
"L  c #FFB549",
"P  c #FFB649",
"I  c #FFB74B",
"U  c #FCB74D",
"Y  c #FFB64C",
"T  c #FFB74C",
"R  c #FFB64D",
"E  c #FFB74D",
"W  c #FCB74E",
"Q  c #FDB74E",
"!  c #FFB74E",
"~  c #FAB84F",
"^  c #FEB84D",
"/  c #FFB84D",
"(  c #FCB84E",
")  c #FFB84F",
"_  c #EFBC56",
"`  c #EFBC57",
"'  c #E9BF5A",
"]  c #FAB850",
"[  c #FFB850",
"{  c #FFB950",
"}  c #FFB852",
"|  c #FFB953",
" . c #FFBA55",
".. c #F7BE5E",
"X. c #FFBD5A",
"o. c #FFBD5B",
"O. c #F8BF5F",
"+. c #FFBD5C",
"@. c #FFBE5E",
"#. c #FFBF5F",
"$. c #FF8A65",
"%. c #FE8B66",
"&. c #FB8E66",
"*. c #DEA870",
"=. c #DFA870",
"-. c #DFA871",
";. c #DEA971",
":. c #D9AD72",
">. c #DAAD72",
",. c #CFB675",
"<. c #CBBA76",
"1. c #CBBA77",
"2. c #C7BD79",
"3. c #C6BF79",
"4. c #D0B575",
"5. c #D2B474",
"6. c #D2B475",
"7. c #E4A36E",
"8. c #E2A56F",
"9. c #E1A66F",
"0. c #FFBF60",
"q. c #FFBF61",
"w. c #E2A570",
"e. c #8EC05A",
"r. c #94C361",
"t. c #95C461",
"y. c #97C564",
"u. c #98C665",
"i. c #99C766",
"p. c #9AC769",
"a. c #9BC869",
"s. c #9ECB6E",
"d. c #A1C075",
"f. c #A1C176",
"g. c #A3CD72",
"h. c #A2CD73",
"j. c #A5CF76",
"k. c #A5CF77",
"l. c #A6CF76",
"z. c #A4C679",
"x. c #A4C779",
"c. c #A5C77A",
"v. c #A8CA7B",
"b. c #BBCF76",
"n. c #BACF77",
"m. c #B4CF7F",
"M. c #BBC97D",
"N. c #B9CA7D",
"B. c #B8CB7D",
"V. c #B8CB7E",
"C. c #AAD27C",
"Z. c #AAD37C",
"A. c #ABD37D",
"S. c #B5D27C",
"D. c #B6D27C",
"F. c #B0D47F",
"G. c #E1C05F",
"H. c #E4C15E",
"J. c #FFC05F",
"K. c #CBC96D",
"L. c #CBCA6D",
"P. c #CBCA6E",
"I. c #CCC96D",
"U. c #DCC363",
"Y. c #DEC464",
"T. c #D3C769",
"R. c #C6CC71",
"E. c #FFC268",
"W. c #FFC269",
"Q. c #FFC369",
"!. c #FFC36A",
"~. c #FFC36B",
"^. c #FFC46A",
"/. c #FFC46B",
"(. c #FFC671",
"). c #FFC774",
"_. c #FFC776",
"`. c #FFC876",
"'. c #FFC877",
"]. c #FFC977",
"[. c #F3CD7F",
"{. c #FFCA79",
"}. c #FFC97A",
"|. c #FFCB7B",
" X c #FFCB7E",
".X c #FFCB7F",
"XX c #FFCC7F",
"oX c #ADD480",
"OX c #ADD580",
"+X c #ADD481",
"@X c #ADD581",
"#X c #AED480",
"$X c #AFD480",
"%X c #AED580",
"&X c #AFD580",
"*X c #AED481",
"=X c #AFD481",
"-X c #AED581",
";X c #B1D280",
":X c #F7CC80",
">X c #FFCB80",
",X c #FFCC80",
/* pixels */
"                                                                                                                                ",
"                                                                                                                                ",
"                                                                                                                                ",
"                                                                                                                                ",
"                                                                                                                                ",
"                                                                                                                                ",
"                                                                                                                                ",
"                                                                                                                                ",
"                                                        @X@X@X@X@X@X@X@X                                                        ",
"                                                  @X@X@X@X@X@X@X@X@X@X@X@X@X@X                                                  ",
"                                                @X@X@X@X@X@X@X@X@X@X@X@X@X@X@X@X                                                ",
"              @X@X@X@X@X@X@X@X@X@X@X@X@X@X@X@X@X@X@X@X@X@X@X@X@X@X@X@X@X@X@X@X@X@X@X@X@X@X@X@X@X@X@X@X@X@X@X@X@X@X              ",
"              @X@X@X@X@X@X@X@X@X@X@X@X@X@X@X@X@X@X@X@X@X@X@X@X@X@X@X@X@X@X@X@X@X@X@X@X@X@X@X@X@X@X@X@X@X@X@X@X@X@X              ",
"                @X@X@X@XV.*.7.7.7.7.7.7.w.6.@X@X@Xh.u.t.y.s.A.@X@XA.s.y.t.u.h.@X@X@X6.8.7.7.7.7.7.7.*.V.@X@X@X@X                ",
"                  @X@X@X@Xm.*.%.%.%.%.%.%.:.@Xt.M e b V M e t e.e.t r M V b e M t.@X:.%.%.%.%.%.%.*.m.@X@X@X@X                  ",
"                      @X@X@X@XV.8.%.%.%.%.,.@Xt.t.l.@X@X@XA.p.V V a.A.@X@X@Xl.t.t.@X6.%.%.%.%.8.V.@X@X@X@X                      ",
"                        @X@X@X@X@XV.*.&.%.1.@X@X@X@XF A x.@X@X@X@X@X@Xx.A F @X@X@X@X1.%.&.*.V.@X@X@X@X@X                        ",
"                            @X@X@X@X@X;X3.3.@X@Xd.3 > . . 4 @X@X@X@X9 q . . % d.@X@X3.3.;X@X@X@X@X@X                            ",
"                                @X@X@X@X@X@X@X@X, 2 > . . $ D @X@XD - 0 . . # , @X@X@X@X@X@X@X@X                                ",
"                                      @X@X@X@X@X7 & O o # * 6 @X@X6 * # . O & 7 @X@X@X@X@X                                      ",
"                                        R R U.@X@Xc ; * = 1 G @X@XG 1 = * ; v @X@XY.R /                                         ",
"                                        R R R ` S.@X@Xv.x.@Xl.Z Z l.@Xx.v.@X@XS.` R R R                                         ",
"                                      R R R R R ~ P.@X@X@X@X@Xr.t.@X@X@X@X@XP.~ R R R R R                                       ",
"                                      R R R R R R R ] G.P.n.S.F.F.S.n.H J k R R R R R R R                                       ",
"                                      R R R R R R R R R R R R R R R R y y f R R R R R R R                                       ",
"                                      R R R R R R R R R R R R R R R L y y f R R R R R R R                                       ",
"                                      R R R R R R R R R R R R R R R k y y k R R R R R R R                                       ",
"                                      } R R R R R R R R R R R R R L a y y L R R R R R R }                                       ",
"                                    >X].X.R R R R R R R R R R / L d y y f R R R R R R X.].,X                                    ",
"                                  XX,X,X,X|.E.@.} R R R R R R K a y y a L R R } @.E.|.,X,X,XXX                                  ",
"                                  ,X,X,X,X,X,X,X,X|._.(./.R j d d f k J.(._.|.,X,X,X,X,X,X,X,X                                  ",
"                                .X,X,X,X,X,X,X,X,X,X,X,X,X@.R R R R @.,X,X,X,X,X,X,X,X,X,X,X,X.X                                ",
"                                ,X,X,X,X,X,X,X,X,X,X,X,X,X@.R R R R @.,X,X,X,X,X,X,X,X,X,X,X,X,X                                ",
"                              .X,X,X,X,X,X,X,X,X,X,X,X,X,X@.R R R R @.,X,X,X,X,X,X,X,X,X,X,X,X,XXX                              ",
"                            /..X,X,X,X,X,X,X,X,X,X,X,X,X,X@.R R R R @.,X,X,X,X,X,X,X,X,X,X,X,X,X.X/.                            ",
"                          R R } q._.XX,X,X,X,X,X,X,X,X,X,X@.R R R R @.,X,X,X,X,X,X,X,X,X,XXX_.q.} R /                           ",
"                          R R R R R } E.,X,X,X,X,X,X,X,X,X@.R R R R @.,X,X,X,X,X,X,X,X,XE. .R R R R R                           ",
"                        R R R R R R R @.,X,X,X,X,X,X,X,X,X@.R R R R @.,X,X,X,X,X,X,X,X,Xq.R R R R R R R                         ",
"                        R R R R R R R E.,X,X,X,X,X,X,X,X,X@.R R R R @.,X,X,X,X,X,X,X,X,XE.R R R R R R R                         ",
"                          R R R R R R ].,X,X,X,X,X,X,X,X,X@.R R R R @.,X,X,X,X,X,X,X,X,X].R R R R R R                           ",
"                            R.H.R R } XX,X,X,X,X,X,X,X,X,X@.R R R R @.,X,X,X,X,X,X,X,X,XXX/ R / ' I.                            ",
"                          @X@X@XS.T.O.,X,X,X,X,X,X,X,X,X,X@.R R R R @.,X,X,X,X,X,X,X,X,X,X..T.S.@X@X@X                          ",
"                          @X@X@X@X@X:X,X,X,X,X,X,X,X,X,X,X@.R R R R @.,X,X,X,X,X,X,X,X,X,X[.@X@X@X@X@X                          ",
"                            @X@X@X  XX,X,X,X,X,X,X,X,X,X,X@.R R R R @.,X,X,X,X,X,X,X,X,X,X>X  @X@X@X                            ",
"                                    ,X,X,X,X,X,X,X,X,X,X,X@.R R R R @.,X,X,X,X,X,X,X,X,X,XXX                                    ",
"                                    ,X,X,X,X,X,X,X,X,X,X,X@.R R R R @.,X,X,X,X,X,X,X,X,X,X,X                                    ",
"                                    ,X,X,X,X,X,X,X,X,X,X,X@.R R R R @.,X,X,X,X,X,X,X,X,X,X,X                                    ",
"                                  >X,X,X,X,X,X,X,X,X,X,X,X@.R R R R @.,X,X,X,X,X,X,X,X,X,X,XXX                                  ",
"                                  ,X,X,X,X,X,X,X,X,X,X,X,X@.R R R R @.,X,X,X,X,X,X,X,X,X,X,XXX                                  ",
"                                  XX,X,X,X,X,X,X,X,X,X,X,X@.R R R R @.,X,X,X,X,X,X,X,X,X,X,X>X                                  ",
"                                  ,X,X,X,X,X,X,X,X,X,X,X,X@.R R R R @.,X,X,X,X,X,X,X,X,X,X,X,X                                  ",
"                                  ,X,X,X,X,X,X,X,X,X,X,X,X@.R R R R @.,X,X,X,X,X,X,X,X,X,X,X,X                                  ",
"                                ,X,X,X,X,X,X,X,X,X,X,X,X,X@.R R R R @.,X,X,X,X,X,X,X,X,X,X,X,X.X                                ",
"                                ,X,X,X,X,X,X,X,X,X,X,X,X,X@.R R R R @.,X,X,X,X,X,X,X,X,X,X,X,X,X                                ",
"                                  >X,X,X,X,X,X,X,X,X,X,X,X@.R R R R @.,X,X,X,X,X,X,X,X,X,X,X>X                                  ",
"                                      ,X,X,X,X,X,X,X,X,X,X@.R R R R @.,X,X,X,X,X,X,X,X,X,X                                      ",
"                                              ,X,XXX.X,X,X@.R R R R @.,X,X.XXXXXXX                                              ",
"                                                              q.q.                                                              ",
"                                                                                                                                ",
"                                                                                                                                ",
"                                                                                                                                ",
"                                                                                                                                ",
"                                                                                                                                ",
"                                                                                                                                "
};
